<svg xmlns="http://www.w3.org/2000/svg" width="200" height="200" fill="none" style=""><rect id="backgroundrect" width="100%" height="100%" x="0" y="0" fill="none" stroke="none"/>



























<g class="currentLayer" style=""><title>Layer 1</title><path d="M52.3558 130.325C50.0558 135.287 47.9433 140.35 46.0433 145.487C45.3933 147.237 44.7558 149.075 44.8683 150.937C44.9808 152.8 46.0433 154.737 47.8308 155.287C50.0308 155.975 52.2558 154.387 53.9308 152.8C57.8433 149.1 61.1933 144.812 63.8308 140.112C65.0683 137.912 66.1058 135.012 64.5433 133.037C63.9058 132.237 62.9558 131.775 62.0308 131.325C60.1433 130.425 58.1558 129.5 56.0683 129.537C53.9808 129.6 51.7433 130.937 52.3558 130.325Z" fill="white" id="svg_1"/><path d="M48.9183 156.375C48.4558 156.375 48.0058 156.3 47.5558 156.162C45.2558 155.45 44.0933 153.05 43.9558 151C43.8308 149.012 44.4683 147.112 45.1808 145.175C47.0308 140.162 49.1058 135.175 51.3433 130.325C51.3683 130.125 51.4683 129.912 51.7058 129.687C51.9433 129.45 52.2683 129.375 52.5808 129.45C53.3683 129.162 54.7058 128.687 56.0558 128.65C58.3933 128.587 60.5558 129.625 62.4308 130.525C63.3433 130.962 64.4808 131.5 65.2558 132.487C66.7558 134.387 66.5308 137.175 64.6183 140.575C61.9183 145.362 58.5308 149.7 54.5433 153.475C52.5058 155.412 50.6433 156.375 48.9183 156.375ZM52.9433 131.25C50.7558 136 48.7183 140.9 46.9058 145.812C46.2308 147.625 45.6933 149.25 45.7933 150.887C45.8808 152.275 46.6433 153.962 48.1058 154.425C49.5183 154.862 51.2308 154.112 53.3058 152.137C57.1558 148.487 60.4308 144.3 63.0433 139.675C64.1058 137.787 65.1058 135.212 63.8308 133.612C63.3183 132.962 62.4683 132.55 61.6433 132.162C59.9433 131.35 58.0183 130.437 56.0933 130.475C55.0433 130.5 53.8933 130.912 53.2058 131.162C53.1183 131.187 53.0308 131.212 52.9433 131.25Z" fill="#272B30" id="svg_2"/><path d="M71.6058 138.288C69.3058 143.25 67.1933 148.312 65.2933 153.45C64.6433 155.2 64.0058 157.037 64.1183 158.9C64.2308 160.762 65.2933 162.7 67.0808 163.25C69.2808 163.937 71.5058 162.35 73.1808 160.762C77.0933 157.062 80.4434 152.775 83.0809 148.075C84.3184 145.875 85.3558 142.975 83.7933 141C83.1558 140.2 82.2059 139.737 81.2809 139.287C79.3934 138.387 77.4059 137.463 75.3184 137.5C73.2309 137.563 71.0058 138.9 71.6058 138.288Z" fill="white" id="svg_3"/><path d="M68.1808 164.337C67.7183 164.337 67.2684 164.262 66.8184 164.125C64.5059 163.412 63.3433 161.012 63.2183 158.962C63.0933 156.975 63.7308 155.075 64.4433 153.137C66.2933 148.125 68.3683 143.137 70.6058 138.287C70.6308 138.087 70.7309 137.875 70.9684 137.65C71.2059 137.412 71.5308 137.337 71.8433 137.412C72.6308 137.125 73.9683 136.65 75.3183 136.612C77.6558 136.562 79.8183 137.587 81.6933 138.487C82.6058 138.925 83.7433 139.462 84.5183 140.45C86.0183 142.35 85.7933 145.137 83.8808 148.537C81.1808 153.325 77.7933 157.662 73.8058 161.437C71.7558 163.375 69.9058 164.337 68.1808 164.337ZM72.1933 139.212C70.0058 143.962 67.9683 148.862 66.1558 153.775C65.4808 155.587 64.9433 157.212 65.0433 158.85C65.1308 160.237 65.8933 161.925 67.3558 162.387C68.7683 162.825 70.4683 162.087 72.5683 160.112C76.4183 156.475 79.6933 152.275 82.3058 147.65C83.3683 145.762 84.3683 143.187 83.0933 141.587C82.5808 140.937 81.6933 140.512 80.9058 140.137C79.2058 139.325 77.2933 138.4 75.3558 138.45C74.3058 138.475 73.1558 138.887 72.4683 139.137C72.3683 139.15 72.2808 139.187 72.1933 139.212Z" fill="#272B30" id="svg_4"/><path d="M106.356 134.35C108.518 142.087 107.993 150.55 104.881 157.962C104.731 158.312 104.568 158.675 104.243 158.862C103.943 159.037 103.568 159.037 103.218 159.012C98.8183 158.787 94.2683 158.1 90.5808 155.675C86.8933 153.25 84.3308 148.675 85.4183 144.4C86.4433 140.362 90.3558 137.662 94.3433 136.462C98.3183 135.275 102.556 135.2 106.356 134.35Z" fill="#426EEC" id="svg_5"/><path d="M103.506 159.937C103.381 159.937 103.268 159.937 103.168 159.925C99.2308 159.725 94.1808 159.15 90.0808 156.437C85.7058 153.562 83.4308 148.512 84.5308 144.175C85.5183 140.3 89.0808 137.1 94.0683 135.587C96.4559 134.862 98.9183 134.537 101.293 134.225C102.993 134 104.606 133.787 106.168 133.437C106.631 133.337 107.118 133.612 107.243 134.087C109.481 142.062 108.931 150.662 105.731 158.3C105.531 158.775 105.281 159.3 104.718 159.637C104.306 159.9 103.856 159.937 103.506 159.937ZM105.693 135.425C104.318 135.687 102.906 135.875 101.518 136.062C99.2184 136.362 96.8308 136.687 94.5808 137.362C90.2058 138.687 87.1059 141.4 86.2809 144.65C85.2559 148.662 87.9183 152.85 91.0683 154.937C94.8058 157.4 99.5433 157.925 103.256 158.125C103.368 158.137 103.693 158.15 103.768 158.1C103.831 158.062 103.918 157.912 104.031 157.625C106.981 150.612 107.556 142.762 105.693 135.425Z" fill="#272B30" id="svg_6"/><path d="M53.4183 138.187C46.6058 113.737 47.8934 93.7374 67.1934 78.1624C99.2684 52.2749 154.706 63.0999 167.056 94.1874C171.768 106.062 172.043 122.675 166.443 134.112C159.143 149 133.881 162.737 102.456 159.15C97.6934 158.612 92.7183 157.637 89.0433 154.425C85.3683 151.212 83.6183 145.112 86.4683 141.087C79.2683 142.712 71.8808 143.375 64.5308 143.062C59.5058 142.85 54.2183 141.087 53.4183 138.187Z" fill="white" id="svg_7"/><path d="M112.618 160.65C109.281 160.65 105.856 160.462 102.343 160.062C97.4183 159.5 92.3183 158.512 88.4308 155.125C85.0433 152.162 83.0683 146.737 84.7308 142.412C78.0683 143.75 71.2558 144.287 64.4808 143.987C59.4058 143.775 53.5058 141.937 52.5308 138.437C44.7308 110.425 49.0683 91.625 66.6183 77.4625C83.3933 63.925 108.118 59.275 131.168 65.325C149.193 70.0625 162.581 80.4625 167.906 93.8625C172.993 106.662 172.718 123.375 167.256 134.525C160.656 147.987 139.868 160.65 112.618 160.65ZM86.4683 140.187C86.7683 140.187 87.0558 140.337 87.2308 140.6C87.4433 140.912 87.4308 141.325 87.2183 141.637C84.6058 145.337 86.3558 150.887 89.6433 153.75C93.1558 156.812 97.9183 157.725 102.556 158.25C120.793 160.325 134.681 156.4 143.131 152.725C153.768 148.1 161.968 141.175 165.618 133.712C170.868 123 171.118 106.887 166.206 94.5375C161.093 81.675 148.156 71.675 130.706 67.1C108.206 61.1875 84.0933 65.7125 67.7684 78.8875C50.6434 92.7125 46.6183 110.375 54.2933 137.95C54.9058 140.125 59.3183 141.937 64.5683 142.162C71.8433 142.475 79.1433 141.825 86.2683 140.212C86.3308 140.187 86.3933 140.187 86.4683 140.187Z" fill="#272B30" id="svg_8"/><path d="M62.0309 92.45C66.9809 89.1625 82.0308 90.0125 90.2183 92.7875C93.0058 89.0625 96.2183 86.6 100.443 85.375C105.331 97.5 107.493 112.675 103.218 126.6C99.3809 139.075 87.6808 145.5 75.7433 146.425C63.7933 147.35 48.3308 139.025 43.7933 126.737C35.3933 104 54.2434 83.225 54.2434 83.225C54.2434 83.225 59.8434 88.675 62.0309 92.45Z" fill="white" id="svg_9"/><path d="M74.0184 147.4C62.5184 147.4 47.5183 139.462 42.9308 127.05C34.4308 104.062 53.3683 82.8125 53.5683 82.6C53.7308 82.4125 53.9684 82.3125 54.2184 82.3C54.4684 82.3 54.7058 82.3875 54.8808 82.5625C55.0933 82.775 59.9059 87.475 62.3434 91.2125C68.3184 88.2 82.2683 89.325 89.8933 91.7125C92.8183 87.975 96.1183 85.675 100.193 84.4875C100.643 84.3625 101.118 84.5875 101.293 85.025C106.943 99.0125 107.956 114.262 104.093 126.862C99.8559 140.675 86.7058 146.487 75.8183 147.325C75.2183 147.375 74.6184 147.4 74.0184 147.4ZM54.2934 84.5625C51.1434 88.4125 37.4059 106.812 44.6434 126.412C49.1934 138.725 64.6433 146.35 75.6683 145.5C85.9558 144.712 98.3684 139.25 102.343 126.312C106.018 114.337 105.131 99.875 99.9059 86.4875C96.3934 87.6875 93.5309 89.875 90.9434 93.325C90.7059 93.6375 90.2934 93.7625 89.9184 93.6375C81.8184 90.8875 67.0684 90.175 62.5309 93.2C62.3184 93.3375 62.0684 93.3875 61.8184 93.325C61.5684 93.2625 61.3684 93.1125 61.2309 92.8875C59.5934 90.0625 55.8434 86.1375 54.2934 84.5625Z" fill="#272B30" id="svg_10"/><path d="M60.8059 116.425C60.6184 116.425 60.4434 116.412 60.2559 116.4C58.3684 116.212 56.5684 115.112 55.3184 113.387C55.0184 112.975 55.1183 112.412 55.5183 112.112C55.9308 111.812 56.4934 111.912 56.7934 112.312C57.7184 113.587 59.0808 114.437 60.4308 114.575C61.8683 114.725 63.2934 114.025 63.9184 112.875C64.1559 112.425 64.7184 112.262 65.1559 112.5C65.5934 112.737 65.7683 113.3 65.5308 113.737C64.6558 115.375 62.7559 116.425 60.8059 116.425Z" fill="#272B30" id="svg_11"/><path d="M84.9434 117.762C84.7559 117.762 84.5809 117.75 84.3934 117.737C82.5059 117.55 80.7059 116.45 79.4559 114.725C79.1559 114.312 79.2558 113.75 79.6558 113.45C80.0683 113.15 80.6309 113.25 80.9309 113.65C81.8559 114.925 83.2183 115.775 84.5683 115.912C86.0058 116.062 87.4309 115.362 88.0559 114.212C88.2934 113.762 88.8559 113.6 89.2934 113.837C89.7309 114.075 89.9059 114.637 89.6684 115.075C88.7934 116.712 86.9059 117.762 84.9434 117.762Z" fill="#272B30" id="svg_12"/><path d="M128.706 136.8C125.231 136.8 121.843 136.5 118.706 136.137C117.668 136.012 116.631 135.887 115.606 135.75C109.593 134.962 103.918 134.212 98.5309 136.687C98.0684 136.9 97.5308 136.7 97.3183 136.237C97.1058 135.775 97.3059 135.237 97.7684 135.025C103.631 132.337 109.568 133.112 115.843 133.937C116.856 134.075 117.881 134.2 118.918 134.325C125.706 135.112 133.643 135.6 141.081 133.275C148.693 130.887 154.668 125.437 156.656 119.062C156.806 118.587 157.318 118.312 157.806 118.462C158.293 118.612 158.556 119.125 158.406 119.612C156.206 126.65 149.931 132.412 141.631 135.012C137.356 136.337 132.956 136.8 128.706 136.8Z" fill="#272B30" id="svg_13"/><path d="M70.2933 124.025C69.3558 123.462 68.5183 122.712 67.8558 121.837C67.5683 121.462 67.3059 121.05 67.2184 120.575C67.1309 120.1 67.2558 119.575 67.6308 119.275C67.8558 119.1 68.1309 119.037 68.3934 118.975C70.0934 118.637 71.8434 118.825 73.5434 119.15C73.9559 119.225 74.3808 119.325 74.7433 119.55C75.1058 119.775 75.3933 120.162 75.4058 120.587C75.4058 120.987 75.1683 121.337 74.9308 121.662C74.4308 122.287 73.8683 122.862 73.2433 123.362C72.7683 123.737 72.2433 124.075 71.6558 124.212C71.0558 124.325 70.3933 124.212 70.2933 124.025Z" fill="#272B30" id="svg_14"/><path d="M70.5933 130.212C70.5808 130.212 70.5558 130.212 70.5433 130.212C70.0433 130.187 69.6558 129.75 69.6808 129.25L69.9808 123.512C70.0058 123.012 70.4183 122.625 70.9433 122.65C71.4433 122.675 71.8308 123.112 71.8058 123.612L71.5059 129.35C71.4809 129.837 71.0808 130.212 70.5933 130.212Z" fill="#272B30" id="svg_15"/><path d="M98.0308 65.1125C99.2933 67.9875 101.006 70.6625 103.081 73.025C104.068 74.15 105.181 75.225 106.581 75.7625C108.031 76.3125 109.618 76.225 111.168 76.2375C115.506 76.2625 119.831 77.15 123.831 78.825C125.381 79.475 126.893 80.2375 128.518 80.625C131.693 81.375 135.118 80.6 137.868 78.8625C140.618 77.125 142.731 74.475 144.168 71.55C130.256 63.95 113.631 61.425 98.0308 65.1125Z" fill="#fd4f00" id="svg_16" class="" fill-opacity="1"/><path d="M131.031 81.825C130.106 81.825 129.193 81.725 128.306 81.5125C126.981 81.2 125.756 80.6625 124.568 80.1375C124.206 79.975 123.843 79.8125 123.468 79.6625C119.606 78.05 115.343 77.175 111.156 77.15H110.543C109.131 77.15 107.668 77.15 106.256 76.625C104.618 76 103.381 74.7625 102.393 73.6375C100.243 71.2 98.4934 68.4625 97.1934 65.4875C97.0809 65.2375 97.0934 64.95 97.2059 64.7125C97.3309 64.475 97.5559 64.2875 97.8184 64.225C113.281 60.575 130.343 62.95 144.618 70.75C145.043 70.9875 145.218 71.5125 144.993 71.95C143.356 75.2625 141.068 77.9125 138.356 79.625C136.093 81.075 133.518 81.825 131.031 81.825ZM110.543 75.3125H111.181C115.606 75.35 120.106 76.2625 124.193 77.975C124.568 78.1375 124.943 78.3 125.318 78.4625C126.481 78.975 127.581 79.4625 128.743 79.7375C131.543 80.4 134.693 79.8 137.393 78.0875C139.606 76.6875 141.518 74.575 142.956 71.925C129.568 64.85 113.793 62.625 99.3309 65.75C100.506 68.1625 101.993 70.4 103.768 72.4125C104.618 73.375 105.643 74.4125 106.906 74.9C108.006 75.325 109.243 75.325 110.543 75.3125Z" fill="#272B30" id="svg_17"/><path d="M151.656 76.125C152.581 78.925 151.156 82.625 151.718 85.5125C152.268 88.2875 154.306 90.7125 156.931 91.725C159.568 92.7375 163.056 92.15 165.318 90.475C164.356 88.975 160.356 83.425 159.218 82.1375C156.831 79.45 153.981 76.975 151.656 76.125Z" fill="#fd4f00" id="svg_18" class="" fill-opacity="1"/><path d="M159.806 93.15C158.693 93.15 157.593 92.9625 156.618 92.5875C153.706 91.4625 151.443 88.75 150.843 85.6875C150.556 84.225 150.718 82.6375 150.881 81.0875C151.068 79.3625 151.231 77.7375 150.793 76.4C150.681 76.0625 150.768 75.7 151.031 75.4625C151.281 75.225 151.656 75.1375 151.981 75.2625C154.218 76.075 157.106 78.3625 159.918 81.525C161.056 82.8125 165.093 88.4 166.106 89.975C166.368 90.375 166.268 90.9125 165.881 91.2C164.181 92.475 161.943 93.15 159.806 93.15ZM152.868 77.75C152.943 78.9125 152.818 80.1125 152.693 81.3C152.543 82.775 152.393 84.1625 152.631 85.35C153.118 87.8125 154.943 89.9875 157.281 90.8875C159.306 91.675 162.031 91.375 164.068 90.225C162.643 88.1375 159.493 83.8125 158.556 82.75C156.593 80.55 154.568 78.775 152.868 77.75Z" fill="#272B30" id="svg_19"/><path d="M47.2183 122.987C47.0933 122.987 46.9683 122.9 46.9308 122.775C46.8808 122.612 46.9683 122.45 47.1308 122.4C50.0433 121.487 53.0558 121.1 56.1058 121.225C56.2683 121.237 56.4058 121.375 56.3933 121.537C56.3808 121.7 56.2433 121.837 56.0808 121.825C53.1058 121.7 50.1558 122.075 47.3183 122.962C47.2808 122.987 47.2558 122.987 47.2183 122.987Z" fill="#272B30" id="svg_20"/><path d="M50.7433 127.862C50.6558 127.862 50.5683 127.825 50.5058 127.75C50.4058 127.625 50.4183 127.425 50.5558 127.325C52.2183 125.987 54.2058 125.037 56.2933 124.587C56.4558 124.55 56.6183 124.662 56.6558 124.825C56.6933 124.987 56.5933 125.15 56.4183 125.187C54.4183 125.625 52.5308 126.525 50.9308 127.812C50.8808 127.85 50.8058 127.862 50.7433 127.862Z" fill="#272B30" id="svg_21"/><path d="M96.2933 126.012C96.2433 126.012 96.1933 126 96.1433 125.975C93.0933 124.325 89.6433 123.463 86.1683 123.463C86.0058 123.463 85.8683 123.325 85.8683 123.162C85.8683 123 86.0058 122.862 86.1683 122.862C89.7433 122.862 93.2809 123.762 96.4309 125.45C96.5809 125.525 96.6308 125.712 96.5558 125.862C96.5058 125.962 96.4058 126.012 96.2933 126.012Z" fill="#272B30" id="svg_22"/><path d="M89.8433 129.275C89.7808 129.275 89.7058 129.25 89.6558 129.213C88.1808 128.063 86.4433 127.2 84.6308 126.725C84.4683 126.688 84.3683 126.513 84.4183 126.35C84.4558 126.188 84.6308 126.088 84.7933 126.138C86.6808 126.638 88.4933 127.525 90.0308 128.738C90.1683 128.838 90.1808 129.038 90.0808 129.163C90.0183 129.238 89.9308 129.275 89.8433 129.275Z" fill="#272B30" id="svg_23"/><path d="M104.168 155.45C104.093 155.45 104.031 155.425 103.968 155.375C103.843 155.262 103.818 155.075 103.931 154.95C107.918 150.162 109.443 143.437 107.931 137.4C107.893 137.237 107.993 137.075 108.156 137.025C108.318 136.987 108.481 137.087 108.531 137.25C110.093 143.475 108.518 150.4 104.418 155.337C104.343 155.412 104.256 155.45 104.168 155.45Z" fill="#272B30" id="svg_24"/><path d="M113.293 144.8C113.268 144.8 113.243 144.8 113.218 144.787C113.056 144.75 112.956 144.575 113.006 144.412C113.593 142.162 113.606 139.787 113.031 137.537C112.993 137.375 113.093 137.212 113.256 137.162C113.418 137.125 113.581 137.225 113.631 137.387C114.231 139.737 114.218 142.225 113.606 144.575C113.556 144.712 113.431 144.8 113.293 144.8Z" fill="#272B30" id="svg_25"/><path d="M45.8183 73.6C45.5308 73.6 45.2684 73.4625 45.0934 73.2375C44.9059 72.9875 44.8559 72.675 44.9559 72.375C45.4559 70.975 46.6183 70.05 47.5558 69.3125L56.4558 62.25C56.1558 62.2 55.8308 62.1875 55.5058 62.1875L46.0558 62.1C45.5558 62.1 45.1433 61.6875 45.1558 61.175C45.1558 60.675 45.5683 60.275 46.0683 60.275C46.0683 60.275 46.0683 60.275 46.0808 60.275L55.5308 60.3625C56.3183 60.375 57.9683 60.3875 58.8308 61.6C59.1058 62 59.0308 62.5375 58.6558 62.8375L48.7059 70.7375C48.3059 71.05 47.9433 71.35 47.6308 71.65C51.4183 71.4375 55.2558 71.3625 59.0308 71.425C59.5308 71.4375 59.9433 71.85 59.9308 72.35C59.9183 72.85 59.5184 73.25 59.0184 73.25H59.0059C54.6559 73.175 50.2434 73.3 45.8934 73.5875C45.8559 73.6 45.8308 73.6 45.8183 73.6Z" fill="#272B30" id="svg_26"/><path d="M29.3683 53.925C29.0808 53.925 28.8183 53.8 28.6433 53.575C28.4558 53.3375 28.4058 53.0125 28.5058 52.725C29.1433 50.8375 30.6808 49.55 31.9058 48.5125L44.5558 37.9125C44.0058 37.675 43.2433 37.625 42.4933 37.6125L29.7058 37.4875C29.2058 37.4875 28.7933 37.075 28.8058 36.5625C28.8058 36.0625 29.2058 35.675 29.7308 35.6625L42.5183 35.7875C43.5433 35.8 45.6683 35.8125 46.7433 37.4125C47.0058 37.8 46.9308 38.325 46.5683 38.625L33.0933 49.9125C32.2433 50.625 31.5058 51.275 30.9683 51.9875C36.3808 51.6375 41.8558 51.5125 47.2558 51.6125C47.7558 51.625 48.1683 52.0375 48.1558 52.5375C48.1433 53.0375 47.7058 53.4375 47.2308 53.4375C41.3308 53.3375 35.3558 53.5 29.4558 53.925C29.4183 53.925 29.3933 53.925 29.3683 53.925Z" fill="#272B30" id="svg_27"/></g></svg>